<svg width="80" height="80" viewBox="0 0 15 15" fill="none" xmlns="http://www.w3.org/2000/svg">
<path d="M12.6562 0L2.34375 0C1.04933 0 0 1.04933 0 2.34375L0 12.6562C0 13.9507 1.04933 15 2.34375 15H12.6562C13.9507 15 15 13.9507 15 12.6562V2.34375C15 1.04933 13.9507 0 12.6562 0Z" fill="#456B43"/>
<path fill-rule="evenodd" clip-rule="evenodd" d="M7.48853 3.84C5.42431 3.84 3.75 5.51431 3.75 7.57853C3.75 9.2299 4.82798 10.629 6.29587 11.1336C6.47936 11.1565 6.54817 11.0418 6.54817 10.9501C6.54817 10.8583 6.54817 10.629 6.54817 10.3079C5.51606 10.5372 5.2867 9.8033 5.2867 9.8033C5.12615 9.36752 4.87385 9.25284 4.87385 9.25284C4.52982 9.02348 4.89679 9.02348 4.89679 9.02348C5.26376 9.04642 5.47018 9.41339 5.47018 9.41339C5.81422 9.98679 6.34174 9.82624 6.54817 9.73449C6.5711 9.4822 6.68578 9.32165 6.77752 9.2299C5.95183 9.13816 5.08028 8.81706 5.08028 7.37211C5.08028 6.95926 5.21789 6.63816 5.47018 6.36293C5.44725 6.29412 5.30963 5.90422 5.51606 5.39963C5.51606 5.39963 5.83716 5.30789 6.54817 5.78954C6.84633 5.69779 7.16743 5.67486 7.48853 5.67486C7.80963 5.67486 8.13073 5.72073 8.4289 5.78954C9.13991 5.30789 9.46101 5.39963 9.46101 5.39963C9.66743 5.90422 9.52982 6.29412 9.50688 6.38587C9.73624 6.63816 9.89679 6.9822 9.89679 7.39504C9.89679 8.84 9.02523 9.13816 8.19954 9.2299C8.33716 9.34458 8.45184 9.57394 8.45184 9.91798C8.45184 10.4226 8.45184 10.8125 8.45184 10.9501C8.45184 11.0418 8.52064 11.1565 8.70413 11.1336C10.195 10.629 11.25 9.2299 11.25 7.57853C11.2271 5.51431 9.55275 3.84 7.48853 3.84Z" fill="#D9D9D9"/>
</svg>
