<svg width="80" height="80" viewBox="0 0 15 15" fill="none" xmlns="http://www.w3.org/2000/svg">
<path d="M14.9999 3.00006C14.9999 1.34321 13.6568 6.10352e-05 11.9999 6.10352e-05L2.99994 6.10352e-05C1.34308 6.10352e-05 -6.10352e-05 1.34321 -6.10352e-05 3.00006L-6.10352e-05 12.0001C-6.10352e-05 13.6569 1.34308 15.0001 2.99994 15.0001H11.9999C13.6568 15.0001 14.9999 13.6569 14.9999 12.0001V3.00006Z" fill="#456B43"/>
<path d="M7.49994 4.31256C8.53119 4.31256 8.67181 4.31256 9.09369 4.31256C9.46869 4.31256 9.65619 4.40631 9.79681 4.45319C9.98431 4.54694 10.1249 4.59381 10.2656 4.73444C10.4062 4.87506 10.4999 5.01569 10.5468 5.20319C10.5937 5.34381 10.6406 5.53131 10.6874 5.90631C10.6874 6.32819 10.6874 6.42194 10.6874 7.50006C10.6874 8.57819 10.6874 8.67194 10.6874 9.09381C10.6874 9.46881 10.5937 9.65631 10.5468 9.79694C10.4531 9.98444 10.4062 10.1251 10.2656 10.2657C10.1249 10.4063 9.98431 10.5001 9.79681 10.5469C9.65619 10.5938 9.46869 10.6407 9.09369 10.6876C8.67181 10.6876 8.57806 10.6876 7.49994 10.6876C6.42181 10.6876 6.32806 10.6876 5.90619 10.6876C5.53119 10.6876 5.34369 10.5938 5.20306 10.5469C5.01556 10.4532 4.87494 10.4063 4.73431 10.2657C4.59369 10.1251 4.49994 9.98444 4.45306 9.79694C4.40619 9.65631 4.35931 9.46881 4.31244 9.09381C4.31244 8.67194 4.31244 8.57819 4.31244 7.50006C4.31244 6.42194 4.31244 6.32819 4.31244 5.90631C4.31244 5.53131 4.40619 5.34381 4.45306 5.20319C4.54681 5.01569 4.59369 4.87506 4.73431 4.73444C4.87494 4.59381 5.01556 4.50006 5.20306 4.45319C5.34369 4.40631 5.53119 4.35944 5.90619 4.31256C6.32806 4.31256 6.46869 4.31256 7.49994 4.31256ZM7.49994 3.60944C6.42181 3.60944 6.32806 3.60944 5.90619 3.60944C5.48431 3.60944 5.20306 3.70319 4.96869 3.79694C4.73431 3.89069 4.49994 4.03131 4.26556 4.26569C4.03119 4.50006 3.93744 4.68756 3.79681 4.96881C3.70306 5.20319 3.65619 5.48444 3.60931 5.90631C3.60931 6.32819 3.60931 6.46881 3.60931 7.50006C3.60931 8.57819 3.60931 8.67194 3.60931 9.09381C3.60931 9.51569 3.70306 9.79694 3.79681 10.0313C3.89056 10.2657 4.03119 10.5001 4.26556 10.7344C4.49994 10.9688 4.68744 11.0626 4.96869 11.2032C5.20306 11.2969 5.48431 11.3438 5.90619 11.3907C6.32806 11.3907 6.46869 11.3907 7.49994 11.3907C8.53119 11.3907 8.67181 11.3907 9.09369 11.3907C9.51556 11.3907 9.79681 11.2969 10.0312 11.2032C10.2656 11.1094 10.4999 10.9688 10.7343 10.7344C10.9687 10.5001 11.0624 10.3126 11.2031 10.0313C11.2968 9.79694 11.3437 9.51569 11.3906 9.09381C11.3906 8.67194 11.3906 8.53131 11.3906 7.50006C11.3906 6.46881 11.3906 6.32819 11.3906 5.90631C11.3906 5.48444 11.2968 5.20319 11.2031 4.96881C11.1093 4.73444 10.9687 4.50006 10.7343 4.26569C10.4999 4.03131 10.3124 3.93756 10.0312 3.79694C9.79681 3.70319 9.51556 3.65631 9.09369 3.60944C8.67181 3.60944 8.57806 3.60944 7.49994 3.60944Z" fill="#D9D9D9"/>
<path d="M7.49994 5.48444C6.37494 5.48444 5.48431 6.37506 5.48431 7.50006C5.48431 8.62506 6.37494 9.51569 7.49994 9.51569C8.62494 9.51569 9.51556 8.62506 9.51556 7.50006C9.51556 6.37506 8.62494 5.48444 7.49994 5.48444ZM7.49994 8.81256C6.79681 8.81256 6.18744 8.25006 6.18744 7.50006C6.18744 6.79694 6.74994 6.18756 7.49994 6.18756C8.20306 6.18756 8.81244 6.75006 8.81244 7.50006C8.81244 8.20319 8.20306 8.81256 7.49994 8.81256Z" fill="#D9D9D9"/>
<path d="M9.56244 5.90631C9.82132 5.90631 10.0312 5.69645 10.0312 5.43756C10.0312 5.17868 9.82132 4.96881 9.56244 4.96881C9.30356 4.96881 9.09369 5.17868 9.09369 5.43756C9.09369 5.69645 9.30356 5.90631 9.56244 5.90631Z" fill="#D9D9D9"/>
</svg>
