<svg width="80" height="80" viewBox="0 0 15 15" fill="none" xmlns="http://www.w3.org/2000/svg">
<path d="M12.6563 0L2.34375 0C1.04933 0 0 1.04933 0 2.34375L0 12.6563C0 13.9507 1.04933 15 2.34375 15H12.6563C13.9507 15 15 13.9507 15 12.6563V2.34375C15 1.04933 13.9507 0 12.6563 0Z" fill="#456B43"/>
<path d="M5.4375 11.25H3.84375V6.23438H5.4375V11.25ZM4.64063 5.53125C4.125 5.53125 3.75 5.15625 3.75 4.64062C3.75 4.125 4.17188 3.75 4.64063 3.75C5.15625 3.75 5.53125 4.125 5.53125 4.64062C5.53125 5.15625 5.15625 5.53125 4.64063 5.53125ZM11.25 11.25H9.65625V8.53125C9.65625 7.73438 9.32812 7.5 8.85937 7.5C8.39062 7.5 7.92187 7.875 7.92187 8.57812V11.25H6.32812V6.23438H7.82812V6.9375C7.96875 6.60938 8.53125 6.09375 9.32812 6.09375C10.2187 6.09375 11.1563 6.60938 11.1563 8.15625V11.25H11.25Z" fill="#D9D9D9"/>
</svg>
