<svg width="80" height="80" viewBox="0 0 15 15" fill="none" xmlns="http://www.w3.org/2000/svg">
<path d="M12.6562 0L2.34375 0C1.04933 0 0 1.04933 0 2.34375L0 12.6562C0 13.9507 1.04933 15 2.34375 15H12.6562C13.9507 15 15 13.9507 15 12.6562V2.34375C15 1.04933 13.9507 0 12.6562 0Z" fill="#456B43"/>
<path d="M3.79684 7.36326C5.8101 6.48612 7.15259 5.90785 7.82431 5.62846C9.7422 4.83074 10.1407 4.69217 10.4005 4.68754C10.4576 4.68659 10.5853 4.70075 10.6681 4.76789C10.7379 4.82458 10.7572 4.90116 10.7664 4.95491C10.7756 5.00866 10.787 5.13111 10.7779 5.22678C10.674 6.31879 10.2243 8.96882 9.99549 10.1919C9.89868 10.7094 9.70806 10.883 9.52352 10.8999C9.12247 10.9368 8.81794 10.6349 8.4295 10.3803C7.82168 9.98183 7.47829 9.7338 6.88829 9.345C6.20645 8.89568 6.64846 8.64872 7.03704 8.24512C7.13874 8.1395 8.90577 6.53225 8.93997 6.38644C8.94425 6.36821 8.94822 6.30024 8.90783 6.26435C8.86745 6.22845 8.80785 6.24073 8.76485 6.25049C8.70388 6.26433 7.73288 6.90613 5.85182 8.17589C5.57621 8.36515 5.32656 8.45736 5.10289 8.45253C4.8563 8.4472 4.38198 8.31311 4.02937 8.19849C3.59687 8.0579 3.25314 7.98357 3.28307 7.74481C3.29866 7.62045 3.46991 7.49327 3.79684 7.36326Z" fill="#D9D9D9"/>
</svg>
