<svg width="100" height="100" viewBox="0 0 24 24" fill="none" xmlns="http://www.w3.org/2000/svg">
<g clip-path="url(#clip0_5_13)">
<path d="M12.7071 3.5147L6.34315 2.80759L11.8232 4.39858L11.6464 10.9393L5.63604 4.92891L5.28249 3.86825L4.92893 4.57536L3.86827 3.86825L4.57538 4.92891L3.86827 5.28247L4.92893 5.63602L10.9393 11.6464L4.3986 11.8232L2.80761 6.34313L3.51472 12.7071L11.1161 12.5303L10.9393 20.1317L19.4246 20.1317L20.1317 20.1317L20.1317 19.4246L20.1317 10.9393L12.5303 11.1161L12.7071 3.5147ZM12.1768 18.8943L12.1768 12.8839L18.3452 19.0523L12.1768 18.8943ZM18.8943 12.1768L19.0523 18.3452L12.8839 12.1768L18.8943 12.1768Z" fill="#263238"/>
</g>
<defs>
<clipPath id="clip0_5_13">
<rect width="24" height="24" fill="white" transform="translate(24) rotate(90)"/>
</clipPath>
</defs>
</svg>
